<?xml version="1.0" encoding="utf-8"?>
<!-- Generator: Adobe Illustrator 27.8.1, SVG Export Plug-In . SVG Version: 6.00 Build 0)  -->
<svg version="1.1" id="Glyph" xmlns="http://www.w3.org/2000/svg" xmlns:xlink="http://www.w3.org/1999/xlink" x="0px" y="0px"
	 viewBox="0 0 96 416" style="enable-background:new 0 0 96 416;" xml:space="preserve">
<style type="text/css">
	.st0{fill:#B1B4B6;}
</style>
<path id="XMLID_294_" class="st0" d="M0,208c0,26.5,21.5,48,48,48s48-21.5,48-48s-21.5-48-48-48S0,181.5,0,208z"/>
<path id="XMLID_295_" class="st0" d="M0,368c0,26.5,21.5,48,48,48s48-21.5,48-48s-21.5-48-48-48S0,341.5,0,368z"/>
<path id="XMLID_297_" class="st0" d="M0,48c0,26.5,21.5,48,48,48s48-21.5,48-48S74.5,0,48,0S0,21.5,0,48z"/>
</svg>
